<?xml version="1.0" encoding="UTF-8" standalone="no"?><!DOCTYPE svg PUBLIC "-//W3C//DTD SVG 1.1//EN" "http://www.w3.org/Graphics/SVG/1.1/DTD/svg11.dtd"><svg width="100%" height="100%" viewBox="0 0 32 32" version="1.1" xmlns="http://www.w3.org/2000/svg" xmlns:xlink="http://www.w3.org/1999/xlink" xml:space="preserve" xmlns:serif="http://www.serif.com/" style="fill-rule:evenodd;clip-rule:evenodd;stroke-linejoin:round;stroke-miterlimit:1.41421;"><g id="g4276"><rect x="0.002" y="-0.038" width="32.022" height="32.155" style="fill:#282828;"/></g><ellipse id="path9992" cx="13.29" cy="13.435" rx="10.507" ry="10.361" style="fill:#5b5b5b;fill-opacity:0.94;"/><g id="layer1"><path id="path7" d="M24.75,13.375c0,-6.282 -5.092,-11.375 -11.375,-11.375c-6.283,0 -11.375,5.093 -11.375,11.375c0,6.283 5.093,11.376 11.375,11.376c6.282,0 11.375,-5.093 11.375,-11.376Zm-10.049,5.449c-0.114,0.634 -0.07,1.304 -0.319,1.91c-0.206,0.411 0.004,0.898 -0.151,1.304c-0.286,0.03 -0.563,0.088 -0.856,0.088c-4.825,0 -8.751,-3.926 -8.751,-8.75c0,-1.897 0.623,-3.642 1.652,-5.078c-0.03,0.122 -0.06,0.243 -0.063,0.369c-0.03,0.478 0.053,0.995 0.377,1.366c0.165,0.216 0.456,0.282 0.611,0.51c0.198,0.277 0.597,0.278 0.792,0.56c0.176,0.241 0.369,0.47 0.552,0.706c0.133,0.166 0.166,0.416 0.372,0.517c0.467,0.237 1.041,0.17 1.484,0.469c0.771,0.45 1.514,0.967 2.351,1.292c0.288,0.134 0.717,-0.019 0.9,0.303c0.137,0.381 -0.308,0.608 -0.371,0.948c-0.049,0.215 0.039,0.47 -0.125,0.647c0.173,0.428 0.456,0.799 0.708,1.18c0.21,0.306 0.581,0.444 0.8,0.738c0.15,0.282 0.066,0.619 0.037,0.921l0,0Zm0.643,3.059c0.117,-0.238 0.213,-0.485 0.381,-0.694c0.089,-0.101 0.055,-0.299 0.22,-0.328c0.241,-0.053 0.568,-0.027 0.667,-0.313c-0.036,-0.036 -0.069,-0.073 -0.101,-0.107c0.15,-0.004 0.299,-0.018 0.449,-0.016c0.341,-0.442 0.744,-0.841 0.988,-1.347c0.142,-0.266 0.493,-0.27 0.677,-0.49c0.156,-0.169 0.339,-0.326 0.444,-0.535c0.072,-0.296 -0.035,-0.643 0.171,-0.899c0.2,-0.231 0.469,-0.431 0.522,-0.75c0.059,-0.195 -0.065,-0.388 -0.24,-0.467c-0.576,-0.29 -1.276,-0.234 -1.818,-0.608c-0.166,-0.151 -0.108,-0.416 -0.251,-0.585c-0.188,-0.248 -0.516,-0.291 -0.793,-0.378c-0.226,-0.059 -0.385,-0.24 -0.592,-0.337c-0.502,-0.25 -1.068,-0.376 -1.628,-0.344c-0.221,0.009 -0.448,0.094 -0.563,0.295c-0.058,0.119 -0.195,0.041 -0.282,0.005c-0.449,-0.221 -0.936,-0.449 -1.21,-0.89c-0.058,-0.108 -0.171,-0.157 -0.276,-0.207c0.054,-0.242 0.274,-0.425 0.252,-0.686c-0.285,-0.096 -0.572,0.056 -0.859,0.022c-0.177,-0.026 -0.157,-0.244 -0.175,-0.377c-0.035,-0.264 0.024,-0.563 0.259,-0.721c0.29,-0.21 0.677,-0.435 1.04,-0.278c0.306,0.13 0.312,0.541 0.6,0.692c0.17,-0.288 -0.048,-0.607 -0.05,-0.908c0.166,-0.245 0.438,-0.376 0.649,-0.573c0.155,-0.12 -0.065,-0.32 0.067,-0.45c0.259,-0.354 0.53,-0.726 0.919,-0.945c0.259,-0.152 0.562,-0.018 0.842,-0.04c0.219,-0.072 0.337,-0.298 0.537,-0.401c0.294,-0.173 0.648,-0.142 0.969,-0.087c-0.108,-0.215 -0.2,-0.549 -0.477,-0.577c-0.22,0.081 -0.277,0.384 -0.518,0.454c-0.227,0.133 -0.449,-0.053 -0.598,-0.213c-0.265,0.108 -0.536,0.211 -0.819,0.264c0.581,-0.257 1.219,-0.373 1.786,-0.662c0.084,-0.05 0.234,-0.129 0.163,-0.246c-0.178,-0.326 -0.564,-0.469 -0.745,-0.794c-0.118,-0.171 -0.134,-0.405 -0.293,-0.545c-0.227,-0.099 -0.463,0.134 -0.692,0.03c-0.285,-0.138 -0.484,-0.43 -0.807,-0.495c-0.177,-0.041 -0.411,-0.085 -0.549,0.064c-0.097,0.313 0.132,0.609 0.145,0.918c-0.125,0.243 -0.195,0.505 -0.279,0.763c-0.053,0.185 -0.255,0.264 -0.432,0.223c-0.008,-0.179 0.096,-0.447 -0.129,-0.532c-0.425,-0.172 -0.869,-0.304 -1.286,-0.495c-0.274,-0.095 -0.552,-0.401 -0.348,-0.69c0.264,-0.354 0.687,-0.527 1.022,-0.797c0.03,-0.023 0.056,-0.053 0.083,-0.081c0.33,-0.038 0.651,-0.1 0.989,-0.1c0.215,0 0.415,0.047 0.626,0.063c-0.113,0.063 -0.228,0.125 -0.328,0.209c0.166,0.083 0.355,0.05 0.533,0.077c0.423,0.021 0.69,0.465 1.114,0.469c0.087,-0.215 -0.261,-0.172 -0.3,-0.348c0.165,-0.018 0.348,0.062 0.498,-0.024c0.016,-0.082 -0.019,-0.129 -0.065,-0.17c0.543,0.134 1.066,0.312 1.564,0.542c-0.002,0.041 0.003,0.082 -0.029,0.126c-0.108,0.21 -0.496,0.125 -0.504,0.39c0.15,0.386 0.448,0.706 0.76,0.972c0.216,0.159 0.556,0.31 0.79,0.105c0.2,-0.195 0.272,-0.528 0.475,-0.713c2.181,1.593 3.616,4.151 3.616,7.052c0,4.145 -2.905,7.608 -6.781,8.507l0,0.001Z" style="fill:#dadada;fill-rule:nonzero;"/><path id="path5" d="M29.359,26.267l-5.298,-5.3c-0.851,1.196 -1.897,2.242 -3.093,3.095l5.298,5.298c0.855,0.854 2.239,0.854 3.093,0c0.855,-0.855 0.855,-2.239 0,-3.093Z" style="fill:#dadada;fill-rule:nonzero;"/></g></svg>
