<svg xmlns="http://www.w3.org/2000/svg" xml:space="preserve" style="fill-rule:evenodd;clip-rule:evenodd;stroke-linejoin:round;stroke-miterlimit:1.41421" viewBox="0 0 32 32"><path d="M.002-.038h32.022v32.155H.002z" style="fill:#282828"/><ellipse cx="13.29" cy="13.435" rx="10.507" ry="10.361" style="fill:#5b5b5b;fill-opacity:.94"/><path d="M24.75 13.375C24.75 7.093 19.658 2 13.375 2S2 7.093 2 13.375c0 6.283 5.093 11.376 11.375 11.376S24.75 19.658 24.75 13.375m-10.049 5.449c-.114.634-.07 1.304-.319 1.91-.206.411.004.898-.151 1.304-.286.03-.563.088-.856.088-4.825 0-8.751-3.926-8.751-8.75 0-1.897.623-3.642 1.652-5.078-.03.122-.06.243-.063.369-.03.478.053.995.377 1.366.165.216.456.282.611.51.198.277.597.278.792.56.176.241.369.47.552.706.133.166.166.416.372.517.467.237 1.041.17 1.484.469.771.45 1.514.967 2.351 1.292.288.134.717-.019.9.303.137.381-.308.608-.371.948-.049.215.039.47-.125.647.173.428.456.799.708 1.18.21.306.581.444.8.738.15.282.066.619.037.921m.643 3.059c.117-.238.213-.485.381-.694.089-.101.055-.299.22-.328.241-.053.568-.027.667-.313l-.101-.107c.15-.004.299-.018.449-.016.341-.442.744-.841.988-1.347.142-.266.493-.27.677-.49.156-.169.339-.326.444-.535.072-.296-.035-.643.171-.899.2-.231.469-.431.522-.75.059-.195-.065-.388-.24-.467-.576-.29-1.276-.234-1.818-.608-.166-.151-.108-.416-.251-.585-.188-.248-.516-.291-.793-.378-.226-.059-.385-.24-.592-.337a3.26 3.26 0 0 0-1.628-.344c-.221.009-.448.094-.563.295-.058.119-.195.041-.282.005-.449-.221-.936-.449-1.21-.89-.058-.108-.171-.157-.276-.207.054-.242.274-.425.252-.686-.285-.096-.572.056-.859.022-.177-.026-.157-.244-.175-.377-.035-.264.024-.563.259-.721.29-.21.677-.435 1.04-.278.306.13.312.541.6.692.17-.288-.048-.607-.05-.908.166-.245.438-.376.649-.573.155-.12-.065-.32.067-.45.259-.354.53-.726.919-.945.259-.152.562-.018.842-.04.219-.072.337-.298.537-.401.294-.173.648-.142.969-.087-.108-.215-.2-.549-.477-.577-.22.081-.277.384-.518.454-.227.133-.449-.053-.598-.213a4.3 4.3 0 0 1-.819.264c.581-.257 1.219-.373 1.786-.662.084-.05.234-.129.163-.246-.178-.326-.564-.469-.745-.794-.118-.171-.134-.405-.293-.545-.227-.099-.463.134-.692.03-.285-.138-.484-.43-.807-.495-.177-.041-.411-.085-.549.064-.097.313.132.609.145.918-.125.243-.195.505-.279.763-.053.185-.255.264-.432.223-.008-.179.096-.447-.129-.532-.425-.172-.869-.304-1.286-.495-.274-.095-.552-.401-.348-.69.264-.354.687-.527 1.022-.797.03-.023.056-.053.083-.081.33-.038.651-.1.989-.1.215 0 .415.047.626.063-.113.063-.228.125-.328.209.166.083.355.05.533.077.423.021.69.465 1.114.469.087-.215-.261-.172-.3-.348.165-.018.348.062.498-.024.016-.082-.019-.129-.065-.17a8.7 8.7 0 0 1 1.564.542c-.002.041.003.082-.029.126-.108.21-.496.125-.504.39.15.386.448.706.76.972.216.159.556.31.79.105.2-.195.272-.528.475-.713 2.181 1.593 3.616 4.151 3.616 7.052 0 4.145-2.905 7.608-6.781 8.507zm14.015 4.384-5.298-5.3a13.2 13.2 0 0 1-3.093 3.095l5.298 5.298a2.187 2.187 0 0 0 3.093-3.093" style="fill:#dadada;fill-rule:nonzero"/></svg>